<?xml version="1.0" encoding="utf-8"?>
<!-- Generator: Adobe Illustrator 26.2.1, SVG Export Plug-In . SVG Version: 6.00 Build 0)  -->
<svg version="1.1" xmlns="http://www.w3.org/2000/svg" xmlns:xlink="http://www.w3.org/1999/xlink" x="0px" y="0px"
	 viewBox="0 0 336.63 262.68" style="enable-background:new 0 0 336.63 262.68;" xml:space="preserve">
<style type="text/css">
	.st0{fill:none;}
	.st1{font-family:'Oswald-Regular';}
	.st2{font-size:26.5905px;}
</style>
<g id="Vrstva_1">
</g>
<g id="vl">
	<g>
		<rect x="178.93" y="209.45" class="st0" width="215.57" height="84.07"/>
		<text transform="matrix(0.9462 0 0 1 178.9275 230.9918)" class="st1 st2">paperplane</text>
		<g>
			<g>
				<g>
					<path d="M106.83,123.9c24.03-3.5,48.06-6.99,72.09-10.48c24.16-3.51,48.31-7.02,72.47-10.53c13.51-1.96,27.01-3.93,40.52-5.89
						c1.79-0.26,1.03-2.98-0.75-2.72c-24.03,3.5-48.06,6.99-72.09,10.48c-24.16,3.51-48.31,7.02-72.47,10.53
						c-13.51,1.96-27.01,3.93-40.52,5.89C104.29,121.44,105.05,124.16,106.83,123.9L106.83,123.9z"/>
				</g>
			</g>
			<g>
				<g>
					<path d="M205.49,204.46c11.33-14.06,22.67-28.11,34.02-42.15c11.26-13.93,22.52-27.86,33.77-41.79
						c6.42-7.96,12.84-15.91,19.26-23.88c1.13-1.4-0.85-3.41-1.99-1.99c-11.33,14.06-22.67,28.11-34.02,42.15
						c-11.26,13.93-22.52,27.86-33.77,41.79c-6.42,7.96-12.84,15.91-19.26,23.88C202.36,203.86,204.35,205.87,205.49,204.46
						L205.49,204.46z"/>
				</g>
			</g>
			<g>
				<g>
					<path d="M148.59,160.86c17.36-7.25,34.63-14.73,51.86-22.28c16.76-7.34,33.49-14.74,50.29-22c9.93-4.29,19.87-8.53,29.85-12.7
						c1.65-0.69,0.93-3.42-0.75-2.72c-17.36,7.25-34.63,14.73-51.86,22.28c-16.76,7.34-33.49,14.74-50.29,22
						c-9.93,4.29-19.87,8.53-29.85,12.7C146.19,158.83,146.92,161.56,148.59,160.86L148.59,160.86z"/>
				</g>
			</g>
			<g>
				<g>
					<path d="M163.86,173.83c15.59-9.31,31.17-18.65,46.74-27.99c15.5-9.3,31-18.6,46.5-27.89c8.81-5.28,17.61-10.55,26.42-15.81
						c1.56-0.93,0.14-3.37-1.42-2.43c-15.59,9.31-31.17,18.65-46.74,27.99c-15.5,9.3-31,18.6-46.5,27.89
						c-8.81,5.28-17.61,10.55-26.42,15.81C160.88,172.33,162.29,174.77,163.86,173.83L163.86,173.83z"/>
				</g>
			</g>
			<g>
				<g>
					<path d="M205.03,205.05c0.39,0,0.39-0.6,0-0.6C204.64,204.45,204.64,205.05,205.03,205.05L205.03,205.05z"/>
				</g>
			</g>
			<g>
				<g>
					<path d="M106.13,124.29c14,11.3,28,22.59,42,33.89c0.3,0.24,0.73-0.18,0.43-0.43c-14-11.3-28-22.59-42-33.89
						C106.25,123.62,105.82,124.05,106.13,124.29L106.13,124.29z"/>
				</g>
			</g>
			<g>
				<g>
					<path d="M146.74,198.52c-18.64,3.38-37.72,5.82-56.65,3.56c-15.52-1.85-30.91-7.2-43.41-16.74
						c-12.29-9.37-21.09-22.87-24.3-38.02c-1.57-7.39-1.72-15.14-0.12-22.54c1.45-6.68,4.32-12.93,8.06-18.62
						c7.67-11.67,18.75-21.01,30.72-28.04c5.77-3.39,11.85-6.28,18.18-8.47c7.76-2.68,15.92-4.32,24.02-5.6
						c18.39-2.9,37.12-3.05,55.67-1.91c18.62,1.15,37.06,3.78,55.56,6c17.61,2.12,36.03,3.11,52.9-3.36
						c14.45-5.54,26.64-16.64,31.44-31.62c1.12-3.51,1.76-7.15,1.93-10.83c0.09-1.81-2.73-1.81-2.82,0
						c-0.75,15.91-11.38,29.7-25.17,36.95c-16.02,8.42-34.67,8.5-52.24,6.72c-9.47-0.96-18.89-2.35-28.34-3.5
						c-9.38-1.13-18.78-2.14-28.21-2.84c-18.67-1.38-37.5-1.56-56.09,0.89c-8.81,1.16-17.68,2.76-26.2,5.33
						c-6.32,1.91-12.44,4.55-18.26,7.66c-12.47,6.68-23.96,15.73-32.57,27.01c-8.78,11.49-13.58,25.29-12.34,39.83
						c1.31,15.28,8.33,29.95,19.14,40.78c11.21,11.24,25.99,18.38,41.37,21.85c17.9,4.04,36.45,3.1,54.48,0.52
						c4.68-0.67,9.34-1.46,13.98-2.3C149.27,200.91,148.52,198.2,146.74,198.52L146.74,198.52z"/>
				</g>
			</g>
			<g>
				<g>
					<path d="M151.25,198.04c8.15-3.29,15.62-7.95,22.2-13.78c1.36-1.21-0.64-3.19-1.99-1.99c-6.19,5.49-13.28,9.95-20.95,13.05
						c-0.71,0.29-1.19,0.94-0.98,1.73C149.69,197.72,150.54,198.32,151.25,198.04L151.25,198.04z"/>
				</g>
			</g>
			<g>
				<g>
					<path d="M150.53,197.49c4.45-7.71,8.9-15.41,13.35-23.12c0.91-1.57-1.53-3-2.43-1.42c-4.45,7.71-8.9,15.41-13.35,23.12
						C147.18,197.64,149.62,199.06,150.53,197.49L150.53,197.49z"/>
				</g>
			</g>
			<g>
				<g>
					<path d="M146.81,159.5c-0.02,12.44,0.78,24.87,0.75,37.31c0,1.81,2.82,1.82,2.82,0c0.02-12.44-0.78-24.87-0.75-37.31
						C149.63,157.69,146.81,157.68,146.81,159.5L146.81,159.5z"/>
				</g>
			</g>
			<g>
				<g>
					<path d="M163.1,173.66c13.95,8.98,27.37,18.81,39.65,30c1.34,1.22,3.34-0.77,1.99-1.99c-12.45-11.34-26.07-21.33-40.22-30.44
						C163,170.24,161.58,172.68,163.1,173.66L163.1,173.66z"/>
				</g>
			</g>
			<g>
				<g>
					<path d="M105.37,124.71c12.87,12.78,26.71,24.55,41.4,35.19c1.47,1.07,2.88-1.38,1.42-2.43
						c-14.49-10.5-28.13-22.14-40.83-34.75C106.07,121.43,104.08,123.43,105.37,124.71L105.37,124.71z"/>
				</g>
			</g>
		</g>
	</g>
</g>
</svg>
