<?xml version="1.0" encoding="utf-8"?>
<!-- Generator: Adobe Illustrator 26.2.1, SVG Export Plug-In . SVG Version: 6.00 Build 0)  -->
<svg version="1.1" xmlns="http://www.w3.org/2000/svg" xmlns:xlink="http://www.w3.org/1999/xlink" x="0px" y="0px"
	 viewBox="0 0 181.62 119.6" style="enable-background:new 0 0 181.62 119.6;" xml:space="preserve">
<g id="Vrstva_1">
</g>
<g id="vl">
	<g>
		<g>
			<g>
				<path d="M15.8,43.55c19.07-2.63,38.14-5.25,57.21-7.87c19.25-2.65,38.5-5.29,57.75-7.94c10.71-1.47,21.43-2.95,32.14-4.42
					c1.38-0.19,0.79-2.29-0.58-2.1c-19.07,2.63-38.14,5.25-57.21,7.87c-19.25,2.65-38.5,5.29-57.75,7.94
					c-10.71,1.47-21.43,2.95-32.14,4.42C13.84,41.64,14.42,43.74,15.8,43.55L15.8,43.55z"/>
			</g>
		</g>
		<g>
			<g>
				<path d="M94.2,104.13c17.9-21.03,35.86-42.01,53.79-63.02c5.14-6.02,10.27-12.04,15.4-18.07c0.9-1.06-0.63-2.61-1.54-1.54
					c-17.9,21.03-35.86,42.01-53.79,63.02c-5.14,6.02-10.27,12.04-15.4,18.07C91.75,103.65,93.29,105.2,94.2,104.13L94.2,104.13z"/>
			</g>
		</g>
		<g>
			<g>
				<path d="M48.99,71.35c27.29-10.79,54.28-22.31,81.44-33.41c7.81-3.19,15.63-6.35,23.47-9.45c1.29-0.51,0.73-2.62-0.58-2.1
					C126.03,37.17,99.04,48.69,71.88,59.8c-7.81,3.19-15.63,6.35-23.47,9.45C47.12,69.75,47.68,71.86,48.99,71.35L48.99,71.35z"/>
			</g>
		</g>
		<g>
			<g>
				<path d="M61.12,81.1c24.66-13.94,49.29-27.96,73.94-41.93c7.06-4,14.12-8,21.18-11.99c1.22-0.69,0.12-2.57-1.1-1.88
					c-24.66,13.94-49.29,27.96-73.94,41.93c-7.06,4-14.12,8-21.18,11.99C58.8,79.91,59.89,81.79,61.12,81.1L61.12,81.1z"/>
			</g>
		</g>
		<g>
			<g>
				<path d="M93.86,104.56c0.3,0,0.3-0.47,0-0.47C93.56,104.09,93.56,104.56,93.86,104.56L93.86,104.56z"/>
			</g>
		</g>
		<g>
			<g>
				<path d="M15.3,43.85c11.13,8.5,22.25,16.99,33.38,25.49c0.24,0.18,0.47-0.22,0.23-0.4c-11.13-8.5-22.25-16.99-33.38-25.49
					C15.3,43.27,15.06,43.67,15.3,43.85L15.3,43.85z"/>
			</g>
		</g>
		<g>
			<g>
				<path d="M51.1,99.31c6.42-2.46,12.36-5.95,17.63-10.37c1.08-0.9-0.47-2.44-1.54-1.54c-4.96,4.16-10.62,7.49-16.67,9.81
					C49.23,97.7,49.79,99.81,51.1,99.31L51.1,99.31z"/>
			</g>
		</g>
		<g>
			<g>
				<path d="M50.51,98.88c3.54-5.8,7.08-11.59,10.61-17.39c0.73-1.2-1.15-2.3-1.88-1.1c-3.54,5.8-7.08,11.59-10.61,17.39
					C47.9,98.98,49.78,100.08,50.51,98.88L50.51,98.88z"/>
			</g>
		</g>
		<g>
			<g>
				<path d="M47.61,70.29c-0.02,9.36,0.61,18.7,0.6,28.06c0,1.4,2.18,1.41,2.18,0c0.02-9.36-0.61-18.7-0.6-28.06
					C49.79,68.89,47.61,68.89,47.61,70.29L47.61,70.29z"/>
			</g>
		</g>
		<g>
			<g>
				<path d="M60.55,80.97c11.05,6.73,21.71,14.1,31.52,22.55c1.06,0.91,2.61-0.62,1.54-1.54c-9.95-8.57-20.76-16.07-31.96-22.9
					C60.45,78.35,59.35,80.24,60.55,80.97L60.55,80.97z"/>
			</g>
		</g>
		<g>
			<g>
				<path d="M14.66,44.15c10.27,9.65,21.28,18.5,32.9,26.47c1.16,0.8,2.25-1.09,1.1-1.88c-11.47-7.87-22.32-16.61-32.46-26.13
					C15.18,41.65,13.64,43.19,14.66,44.15L14.66,44.15z"/>
			</g>
		</g>
	</g>
</g>
</svg>
